<svg width="30" height="40" viewBox="0 0 30 40" fill="none" xmlns="http://www.w3.org/2000/svg">
<path d="M0.333313 39.3333C0.333313 35.4435 1.87855 31.713 4.62908 28.9624C7.37961 26.2119 11.1101 24.6667 15 24.6667C18.8898 24.6667 22.6203 26.2119 25.3709 28.9624C28.1214 31.713 29.6666 35.4435 29.6666 39.3333H26C26 36.416 24.8411 33.6181 22.7782 31.5552C20.7153 29.4923 17.9174 28.3333 15 28.3333C12.0826 28.3333 9.2847 29.4923 7.2218 31.5552C5.1589 33.6181 3.99998 36.416 3.99998 39.3333H0.333313ZM15 22.8333C8.92248 22.8333 3.99998 17.9108 3.99998 11.8333C3.99998 5.75583 8.92248 0.833332 15 0.833332C21.0775 0.833332 26 5.75583 26 11.8333C26 17.9108 21.0775 22.8333 15 22.8333ZM15 19.1667C19.0516 19.1667 22.3333 15.885 22.3333 11.8333C22.3333 7.78167 19.0516 4.5 15 4.5C10.9483 4.5 7.66665 7.78167 7.66665 11.8333C7.66665 15.885 10.9483 19.1667 15 19.1667Z" fill="#FB9400"/>
</svg>
