<svg width="34" height="38" viewBox="0 0 34 38" fill="none" xmlns="http://www.w3.org/2000/svg">
<path d="M31.6667 37.3333H2.33333C1.8471 37.3333 1.38079 37.1402 1.03697 36.7964C0.693154 36.4525 0.5 35.9862 0.5 35.5V2.49999C0.5 2.01376 0.693154 1.54744 1.03697 1.20363C1.38079 0.859811 1.8471 0.666656 2.33333 0.666656H31.6667C32.1529 0.666656 32.6192 0.859811 32.963 1.20363C33.3068 1.54744 33.5 2.01376 33.5 2.49999V35.5C33.5 35.9862 33.3068 36.4525 32.963 36.7964C32.6192 37.1402 32.1529 37.3333 31.6667 37.3333ZM29.8333 33.6667V4.33332H4.16667V33.6667H29.8333ZM11.5 7.99999V11.6667C11.5 13.1253 12.0795 14.5243 13.1109 15.5557C14.1424 16.5872 15.5413 17.1667 17 17.1667C18.4587 17.1667 19.8576 16.5872 20.8891 15.5557C21.9205 14.5243 22.5 13.1253 22.5 11.6667V7.99999H26.1667V11.6667C26.1667 14.0978 25.2009 16.4294 23.4818 18.1485C21.7627 19.8676 19.4312 20.8333 17 20.8333C14.5688 20.8333 12.2373 19.8676 10.5182 18.1485C8.7991 16.4294 7.83333 14.0978 7.83333 11.6667V7.99999H11.5Z" fill="#FB9400"/>
</svg>
